<svg width="52" height="52" viewBox="0 0 52 52" fill="none" xmlns="http://www.w3.org/2000/svg">
<circle cx="26" cy="26" r="26" fill="#F7931A"/>
<g clip-path="url(#clip0_1_4015)">
<path d="M36.9425 23.2563C37.4002 20.3141 35.0705 18.7326 31.8848 17.6776L32.9183 13.6922L30.3951 13.0877L29.389 16.9681C28.7257 16.8091 28.0445 16.6592 27.3674 16.5106L28.3807 12.6045L25.8591 12L24.8251 15.9841C24.2761 15.8639 23.737 15.7452 23.2139 15.62L23.2168 15.6075L19.7373 14.7721L19.066 17.3632C19.066 17.3632 20.9381 17.7758 20.8986 17.8012C21.9204 18.0464 22.1052 18.6967 22.0745 19.2122L20.8973 23.7525C20.9676 23.7697 21.0589 23.7945 21.1596 23.8334C21.0754 23.8133 20.9858 23.7914 20.8929 23.77L19.2428 30.1303C19.118 30.4288 18.801 30.8767 18.0867 30.7066C18.1119 30.7418 16.2527 30.2666 16.2527 30.2666L15 33.0436L18.2836 33.8306C18.8944 33.9779 19.493 34.132 20.0825 34.2769L19.0384 38.308L21.5587 38.9126L22.5927 34.9242C23.2812 35.104 23.9494 35.2697 24.6035 35.426L23.573 39.3955L26.0964 40L27.1404 35.9765C31.443 36.7594 34.6782 36.4437 36.04 32.7019C37.1373 29.6893 35.9854 27.9516 33.7218 26.8185C35.3705 26.4529 36.6123 25.4103 36.9434 23.2566L36.9426 23.256L36.9425 23.2563ZM31.1775 31.0289C30.3978 34.0415 25.1222 32.4129 23.4118 32.0046L24.7974 26.6641C26.5077 27.0746 31.9925 27.887 31.1777 31.0289H31.1775ZM31.9579 23.2126C31.2465 25.9529 26.8557 24.5607 25.4313 24.2193L26.6875 19.3758C28.1119 19.7172 32.6989 20.3543 31.9581 23.2126H31.9579Z" fill="white"/>
</g>
<defs>
<clipPath id="clip0_1_4015">
<rect width="22" height="28" fill="white" transform="translate(15 12)"/>
</clipPath>
</defs>
</svg>
