<svg width="52" height="52" viewBox="0 0 52 52" fill="none" xmlns="http://www.w3.org/2000/svg">
<circle cx="26" cy="26" r="26" fill="url(#paint0_linear_2_4300)"/>
<g clip-path="url(#clip0_2_4300)">
<path d="M22.6 18.73C22.2704 18.4095 21.8287 18.2303 21.369 18.2303C20.9093 18.2303 20.4676 18.4095 20.138 18.73C19.8181 19.0747 19.6403 19.5277 19.6403 19.998C19.6403 20.4683 19.8181 20.9213 20.138 21.266C20.4688 21.5841 20.91 21.7618 21.369 21.7618C21.828 21.7618 22.2692 21.5841 22.6 21.266C22.9199 20.9213 23.0977 20.4683 23.0977 19.998C23.0977 19.5277 22.9199 19.0747 22.6 18.73ZM22.6 18.73C22.2704 18.4095 21.8287 18.2303 21.369 18.2303C20.9093 18.2303 20.4676 18.4095 20.138 18.73C19.8181 19.0747 19.6403 19.5277 19.6403 19.998C19.6403 20.4683 19.8181 20.9213 20.138 21.266C20.4688 21.5841 20.91 21.7618 21.369 21.7618C21.828 21.7618 22.2692 21.5841 22.6 21.266C22.9199 20.9213 23.0977 20.4683 23.0977 19.998C23.0977 19.5277 22.9199 19.0747 22.6 18.73ZM22.6 18.73C22.2704 18.4095 21.8287 18.2303 21.369 18.2303C20.9093 18.2303 20.4676 18.4095 20.138 18.73C19.8181 19.0747 19.6403 19.5277 19.6403 19.998C19.6403 20.4683 19.8181 20.9213 20.138 21.266C20.4688 21.5841 20.91 21.7618 21.369 21.7618C21.828 21.7618 22.2692 21.5841 22.6 21.266C22.9199 20.9213 23.0977 20.4683 23.0977 19.998C23.0977 19.5277 22.9199 19.0747 22.6 18.73ZM30.8 18.53L30.066 20.73H31.574L30.8 18.53ZM22.6 18.73C22.2704 18.4095 21.8287 18.2303 21.369 18.2303C20.9093 18.2303 20.4676 18.4095 20.138 18.73C19.8181 19.0747 19.6403 19.5277 19.6403 19.998C19.6403 20.4683 19.8181 20.9213 20.138 21.266C20.4688 21.5841 20.91 21.7618 21.369 21.7618C21.828 21.7618 22.2692 21.5841 22.6 21.266C22.9199 20.9213 23.0977 20.4683 23.0977 19.998C23.0977 19.5277 22.9199 19.0747 22.6 18.73ZM30.8 18.53L30.066 20.73H31.574L30.8 18.53ZM22.6 18.73C22.2704 18.4095 21.8287 18.2303 21.369 18.2303C20.9093 18.2303 20.4676 18.4095 20.138 18.73C19.8181 19.0747 19.6403 19.5277 19.6403 19.998C19.6403 20.4683 19.8181 20.9213 20.138 21.266C20.4688 21.5841 20.91 21.7618 21.369 21.7618C21.828 21.7618 22.2692 21.5841 22.6 21.266C22.9199 20.9213 23.0977 20.4683 23.0977 19.998C23.0977 19.5277 22.9199 19.0747 22.6 18.73ZM30.8 18.53L30.066 20.73H31.574L30.8 18.53ZM30.8 18.53L30.066 20.73H31.574L30.8 18.53ZM22.6 18.73C22.2704 18.4095 21.8287 18.2303 21.369 18.2303C20.9093 18.2303 20.4676 18.4095 20.138 18.73C19.8181 19.0747 19.6403 19.5277 19.6403 19.998C19.6403 20.4683 19.8181 20.9213 20.138 21.266C20.4688 21.5841 20.91 21.7618 21.369 21.7618C21.828 21.7618 22.2692 21.5841 22.6 21.266C22.9199 20.9213 23.0977 20.4683 23.0977 19.998C23.0977 19.5277 22.9199 19.0747 22.6 18.73ZM22.6 18.73C22.2704 18.4095 21.8287 18.2303 21.369 18.2303C20.9093 18.2303 20.4676 18.4095 20.138 18.73C19.8181 19.0747 19.6403 19.5277 19.6403 19.998C19.6403 20.4683 19.8181 20.9213 20.138 21.266C20.4688 21.5841 20.91 21.7618 21.369 21.7618C21.828 21.7618 22.2692 21.5841 22.6 21.266C22.9199 20.9213 23.0977 20.4683 23.0977 19.998C23.0977 19.5277 22.9199 19.0747 22.6 18.73ZM30.8 18.53L30.066 20.73H31.574L30.8 18.53ZM30.8 18.53L30.066 20.73H31.574L30.8 18.53ZM22.6 18.73C22.2704 18.4095 21.8287 18.2303 21.369 18.2303C20.9093 18.2303 20.4676 18.4095 20.138 18.73C19.8181 19.0747 19.6403 19.5277 19.6403 19.998C19.6403 20.4683 19.8181 20.9213 20.138 21.266C20.4688 21.5841 20.91 21.7618 21.369 21.7618C21.828 21.7618 22.2692 21.5841 22.6 21.266C22.9199 20.9213 23.0977 20.4683 23.0977 19.998C23.0977 19.5277 22.9199 19.0747 22.6 18.73ZM35.2 12H16.8C15.5281 12.0037 14.3093 12.5106 13.41 13.41C12.5106 14.3093 12.0037 15.5281 12 16.8V25.2H40V16.8C39.9963 15.5281 39.4894 14.3093 38.59 13.41C37.6907 12.5106 36.4719 12.0037 35.2 12V12ZM17.568 22.692L15.656 20.17V22.692H14.6V17.308H15.656V19.68L17.492 17.308H18.708L16.726 19.924L18.784 22.692H17.568ZM23.35 21.988C22.8227 22.5118 22.109 22.8047 21.3658 22.8023C20.6226 22.7998 19.9108 22.5023 19.387 21.975C18.8632 21.4477 18.5703 20.734 18.5727 19.9908C18.5752 19.2476 18.8727 18.5358 19.4 18.012C19.9244 17.4923 20.6327 17.2008 21.371 17.2008C22.1093 17.2008 22.8176 17.4923 23.342 18.012C23.8614 18.5434 24.1522 19.2569 24.1522 20C24.1522 20.7431 23.8614 21.4566 23.342 21.988H23.35ZM28 22.692H24.902V17.308H25.958V21.676H28V22.692ZM32.268 22.692L31.928 21.724H29.728L29.408 22.692H28.268L30.142 17.308H31.45L33.338 22.692H32.268ZM35.564 20.6V22.7H34.516V20.6L32.688 17.316H33.888L35.048 19.558L36.2 17.308H37.4L35.564 20.6ZM30.072 20.738H31.58L30.806 18.538L30.072 20.738ZM21.376 18.238C21.1477 18.2326 20.9206 18.2742 20.709 18.3602C20.4974 18.4462 20.3058 18.5748 20.146 18.738C19.8261 19.0827 19.6483 19.5357 19.6483 20.006C19.6483 20.4763 19.8261 20.9293 20.146 21.274C20.4768 21.5921 20.918 21.7698 21.377 21.7698C21.836 21.7698 22.2772 21.5921 22.608 21.274C22.9279 20.9293 23.1057 20.4763 23.1057 20.006C23.1057 19.5357 22.9279 19.0827 22.608 18.738C22.4484 18.5735 22.2566 18.4435 22.0447 18.3561C21.8328 18.2687 21.6052 18.2258 21.376 18.23V18.238ZM22.608 18.738C22.2784 18.4175 21.8367 18.2383 21.377 18.2383C20.9173 18.2383 20.4756 18.4175 20.146 18.738C19.8261 19.0827 19.6483 19.5357 19.6483 20.006C19.6483 20.4763 19.8261 20.9293 20.146 21.274C20.4768 21.5921 20.918 21.7698 21.377 21.7698C21.836 21.7698 22.2772 21.5921 22.608 21.274C22.9279 20.9293 23.1057 20.4763 23.1057 20.006C23.1057 19.5357 22.9279 19.0827 22.608 18.738ZM30.808 18.538L30.074 20.738H31.582L30.808 18.538ZM30.808 18.538L30.074 20.738H31.582L30.808 18.538ZM22.608 18.738C22.2784 18.4175 21.8367 18.2383 21.377 18.2383C20.9173 18.2383 20.4756 18.4175 20.146 18.738C19.8261 19.0827 19.6483 19.5357 19.6483 20.006C19.6483 20.4763 19.8261 20.9293 20.146 21.274C20.4768 21.5921 20.918 21.7698 21.377 21.7698C21.836 21.7698 22.2772 21.5921 22.608 21.274C22.9279 20.9293 23.1057 20.4763 23.1057 20.006C23.1057 19.5357 22.9279 19.0827 22.608 18.738ZM22.608 18.738C22.2784 18.4175 21.8367 18.2383 21.377 18.2383C20.9173 18.2383 20.4756 18.4175 20.146 18.738C19.8261 19.0827 19.6483 19.5357 19.6483 20.006C19.6483 20.4763 19.8261 20.9293 20.146 21.274C20.4768 21.5921 20.918 21.7698 21.377 21.7698C21.836 21.7698 22.2772 21.5921 22.608 21.274C22.9279 20.9293 23.1057 20.4763 23.1057 20.006C23.1057 19.5357 22.9279 19.0827 22.608 18.738ZM30.808 18.538L30.074 20.738H31.582L30.808 18.538ZM30.808 18.538L30.074 20.738H31.582L30.808 18.538ZM22.608 18.738C22.2784 18.4175 21.8367 18.2383 21.377 18.2383C20.9173 18.2383 20.4756 18.4175 20.146 18.738C19.8261 19.0827 19.6483 19.5357 19.6483 20.006C19.6483 20.4763 19.8261 20.9293 20.146 21.274C20.4768 21.5921 20.918 21.7698 21.377 21.7698C21.836 21.7698 22.2772 21.5921 22.608 21.274C22.9279 20.9293 23.1057 20.4763 23.1057 20.006C23.1057 19.5357 22.9279 19.0827 22.608 18.738ZM30.808 18.538L30.074 20.738H31.582L30.808 18.538ZM22.608 18.738C22.2784 18.4175 21.8367 18.2383 21.377 18.2383C20.9173 18.2383 20.4756 18.4175 20.146 18.738C19.8261 19.0827 19.6483 19.5357 19.6483 20.006C19.6483 20.4763 19.8261 20.9293 20.146 21.274C20.4768 21.5921 20.918 21.7698 21.377 21.7698C21.836 21.7698 22.2772 21.5921 22.608 21.274C22.9279 20.9293 23.1057 20.4763 23.1057 20.006C23.1057 19.5357 22.9279 19.0827 22.608 18.738ZM30.808 18.538L30.074 20.738H31.582L30.808 18.538ZM22.608 18.738C22.2784 18.4175 21.8367 18.2383 21.377 18.2383C20.9173 18.2383 20.4756 18.4175 20.146 18.738C19.8261 19.0827 19.6483 19.5357 19.6483 20.006C19.6483 20.4763 19.8261 20.9293 20.146 21.274C20.4768 21.5921 20.918 21.7698 21.377 21.7698C21.836 21.7698 22.2772 21.5921 22.608 21.274C22.9279 20.9293 23.1057 20.4763 23.1057 20.006C23.1057 19.5357 22.9279 19.0827 22.608 18.738ZM22.608 18.738C22.2784 18.4175 21.8367 18.2383 21.377 18.2383C20.9173 18.2383 20.4756 18.4175 20.146 18.738C19.8261 19.0827 19.6483 19.5357 19.6483 20.006C19.6483 20.4763 19.8261 20.9293 20.146 21.274C20.4768 21.5921 20.918 21.7698 21.377 21.7698C21.836 21.7698 22.2772 21.5921 22.608 21.274C22.9279 20.9293 23.1057 20.4763 23.1057 20.006C23.1057 19.5357 22.9279 19.0827 22.608 18.738ZM22.608 18.738C22.2784 18.4175 21.8367 18.2383 21.377 18.2383C20.9173 18.2383 20.4756 18.4175 20.146 18.738C19.8261 19.0827 19.6483 19.5357 19.6483 20.006C19.6483 20.4763 19.8261 20.9293 20.146 21.274C20.4768 21.5921 20.918 21.7698 21.377 21.7698C21.836 21.7698 22.2772 21.5921 22.608 21.274C22.9279 20.9293 23.1057 20.4763 23.1057 20.006C23.1057 19.5357 22.9279 19.0827 22.608 18.738Z" fill="white"/>
<path d="M20.8087 30.4722L21.6047 32.7602H20.0527L20.8087 30.4722Z" fill="white"/>
<path d="M17.232 30.4718C17.1584 30.3933 17.0691 30.3313 16.9698 30.29C16.8705 30.2486 16.7635 30.2288 16.656 30.2318H15.688V31.9278H16.656C16.7639 31.9306 16.8711 31.9103 16.9704 31.8682C17.0698 31.8261 17.159 31.7632 17.232 31.6838C17.3788 31.5161 17.4598 31.3007 17.4598 31.0778C17.4598 30.8549 17.3788 30.6395 17.232 30.4718V30.4718ZM17.232 30.4718C17.1584 30.3933 17.0691 30.3313 16.9698 30.29C16.8705 30.2486 16.7635 30.2288 16.656 30.2318H15.688V31.9278H16.656C16.7639 31.9306 16.8711 31.9103 16.9704 31.8682C17.0698 31.8261 17.159 31.7632 17.232 31.6838C17.3788 31.5161 17.4598 31.3007 17.4598 31.0778C17.4598 30.8549 17.3788 30.6395 17.232 30.4718V30.4718ZM12 26.7998V35.1998C12.0037 36.4717 12.5106 37.6905 13.41 38.5898C14.3093 39.4892 15.5281 39.9961 16.8 39.9998H35.2C36.4719 39.9961 37.6907 39.4892 38.59 38.5898C39.4894 37.6905 39.9963 36.4717 40 35.1998V26.7998H12ZM16.656 32.9598H15.688V34.7998H14.6V29.1998H16.656C17.1546 29.1998 17.6328 29.3979 17.9854 29.7504C18.3379 30.103 18.536 30.5812 18.536 31.0798C18.536 31.5784 18.3379 32.0566 17.9854 32.4092C17.6328 32.7617 17.1546 32.9598 16.656 32.9598ZM22.314 34.7998L21.964 33.7998H19.698L19.366 34.7998H18.2L20.13 29.1998H21.476L23.422 34.7998H22.314ZM25.714 32.6158V34.7998H24.634V32.6158L22.746 29.1998H23.976L25.176 31.5318L26.376 29.1998H27.6L25.714 32.6158ZM16.66 30.2318H15.692V31.9278H16.66C16.7679 31.9306 16.8751 31.9103 16.9744 31.8682C17.0738 31.8261 17.163 31.7632 17.236 31.6838C17.3828 31.5161 17.4638 31.3007 17.4638 31.0778C17.4638 30.8549 17.3828 30.6395 17.236 30.4718C17.162 30.3928 17.072 30.3305 16.9719 30.2891C16.8719 30.2477 16.7642 30.2282 16.656 30.2318H16.66Z" fill="white"/>
</g>
<defs>
<linearGradient id="paint0_linear_2_4300" x1="-1.51852e-06" y1="52" x2="26.3732" y2="-10.7677" gradientUnits="userSpaceOnUse">
<stop stop-color="#4A8FE1"/>
<stop offset="1" stop-color="#00D1FF"/>
</linearGradient>
<clipPath id="clip0_2_4300">
<rect width="28" height="28" fill="white" transform="translate(12 12)"/>
</clipPath>
</defs>
</svg>
